<?xml version="1.0" standalone="no"?>
<!DOCTYPE svg PUBLIC "-//W3C//DTD SVG 20010904//EN"
 "http://www.w3.org/TR/2001/REC-SVG-20010904/DTD/svg10.dtd">
<svg version="1.0" xmlns="http://www.w3.org/2000/svg"
 width="281.000000pt" height="108.000000pt" viewBox="0 0 281.000000 108.000000"
 preserveAspectRatio="xMidYMid meet">

<g transform="translate(0.000000,108.000000) scale(0.100000,-0.100000)"
fill="#000000" stroke="none">
<path d="M820 835 c0 -9 9 -15 25 -15 24 0 25 -2 25 -70 0 -56 3 -70 15 -70
12 0 15 14 15 70 0 69 1 70 26 70 16 0 24 5 22 13 -3 7 -28 13 -66 15 -51 2
-62 0 -62 -13z"/>
<path d="M960 765 c0 -69 3 -85 15 -85 11 0 15 11 15 39 0 37 19 68 33 54 4
-3 7 -26 7 -50 0 -36 3 -43 20 -43 17 0 20 7 20 41 0 56 -14 79 -50 79 -25 0
-30 4 -30 25 0 16 -6 25 -15 25 -12 0 -15 -16 -15 -85z"/>
<path d="M1280 830 c-25 -25 -27 -95 -4 -128 12 -18 24 -22 51 -20 20 2 41 10
47 20 14 23 0 35 -24 20 -11 -7 -26 -12 -34 -12 -20 0 -31 62 -17 89 12 22 36
28 46 11 8 -13 35 -13 35 -1 0 18 -32 41 -56 41 -13 0 -33 -9 -44 -20z"/>
<path d="M2021 837 c-13 -16 -15 -33 -13 -104 2 -40 6 -53 17 -53 11 0 15 12
15 45 0 31 5 47 15 51 8 4 15 10 15 15 0 5 -7 9 -15 9 -8 0 -15 4 -15 9 0 5 7
11 15 15 8 3 15 10 15 16 0 15 -36 12 -49 -3z"/>
<path d="M1659 818 c-3 -50 4 -114 13 -125 13 -16 48 -17 48 -3 0 6 -7 13 -15
16 -21 8 -19 61 3 73 16 9 16 10 0 16 -10 4 -18 16 -18 26 0 27 -30 24 -31 -3z"/>
<path d="M1102 788 c-17 -17 -15 -83 2 -97 17 -14 82 -11 78 4 -1 6 -10 11
-20 11 -9 1 -23 2 -29 3 -30 2 -10 21 22 21 30 0 35 3 35 23 0 13 -5 28 -12
35 -15 15 -61 15 -76 0z m56 -26 c2 -7 -6 -12 -17 -12 -21 0 -27 11 -14 24 9
9 26 2 31 -12z"/>
<path d="M1410 781 c-14 -27 -13 -64 3 -85 15 -21 78 -19 85 3 3 10 -1 12 -18
8 -25 -6 -50 1 -50 14 0 5 18 9 41 9 40 0 41 1 34 27 -8 33 -21 43 -57 43 -17
0 -31 -7 -38 -19z m58 -19 c2 -7 -6 -12 -17 -12 -21 0 -27 11 -14 24 9 9 26 2
31 -12z"/>
<path d="M1530 741 c0 -47 3 -61 14 -61 11 0 16 14 18 48 2 34 7 47 18 47 11
0 16 -13 18 -47 2 -35 7 -48 18 -48 12 0 14 12 12 58 l-3 57 -47 3 -48 3 0
-60z"/>
<path d="M1740 781 c-14 -27 -13 -64 3 -85 15 -21 78 -19 85 3 3 10 -1 12 -18
8 -25 -6 -50 1 -50 14 0 5 18 9 41 9 40 0 41 1 34 27 -8 33 -21 43 -57 43 -17
0 -31 -7 -38 -19z m58 -19 c2 -7 -6 -12 -17 -12 -21 0 -27 11 -14 24 9 9 26 2
31 -12z"/>
<path d="M1860 740 c0 -46 3 -60 14 -60 11 0 16 14 18 48 2 36 7 47 20 47 10
0 23 6 30 13 9 9 2 12 -35 12 l-47 0 0 -60z"/>
<path d="M2080 775 c-14 -36 -13 -47 6 -73 12 -17 24 -22 47 -20 38 4 57 42
41 86 -8 22 -16 28 -47 30 -32 3 -38 0 -47 -23z m68 -39 c-2 -11 -11 -22 -20
-24 -14 -3 -18 3 -18 26 0 16 3 32 7 35 11 12 34 -15 31 -37z"/>
<path d="M2200 740 c0 -47 3 -60 15 -60 11 0 15 11 15 39 0 39 11 55 39 56 8
0 16 6 18 13 3 8 -9 12 -41 12 l-46 0 0 -60z"/>
<path d="M850 610 c-25 -25 -27 -95 -4 -128 31 -45 114 -14 114 43 0 22 -4 25
-35 25 -19 0 -35 -4 -35 -10 0 -5 7 -10 16 -10 24 0 12 -34 -13 -38 -18 -3
-23 3 -28 31 -11 56 22 96 52 66 6 -6 19 -9 29 -7 17 3 17 5 -4 26 -27 27 -66
28 -92 2z"/>
<path d="M982 548 c3 -77 5 -83 26 -86 15 -2 22 2 22 12 0 9 -4 16 -10 16 -6
0 -10 30 -10 70 0 56 -3 70 -15 70 -13 0 -15 -14 -13 -82z"/>
<path d="M1170 545 l0 -85 39 0 c49 0 63 17 59 72 -3 40 -5 43 -35 46 -27 3
-33 7 -33 28 0 15 -6 24 -15 24 -12 0 -15 -16 -15 -85z m68 -23 c3 -27 0 -32
-17 -32 -16 0 -21 6 -21 28 0 53 33 56 38 4z"/>
<path d="M1410 557 c0 -75 9 -97 42 -97 22 0 24 18 3 26 -11 5 -15 23 -15 75
0 55 -3 69 -15 69 -12 0 -15 -15 -15 -73z"/>
<path d="M1537 623 c-4 -3 -7 -42 -7 -85 l0 -78 60 0 c47 0 60 3 60 15 0 11
-11 15 -40 15 -33 0 -40 3 -40 20 0 16 7 20 35 20 24 0 35 5 35 15 0 10 -11
15 -35 15 -28 0 -35 4 -35 20 0 17 7 20 40 20 29 0 40 4 40 15 0 11 -13 15
-53 15 -30 0 -57 -3 -60 -7z"/>
<path d="M1923 618 c2 -7 10 -13 17 -13 7 0 15 6 18 13 2 7 -5 12 -18 12 -13
0 -20 -5 -17 -12z"/>
<path d="M2463 618 c2 -7 10 -13 17 -13 7 0 15 6 18 13 2 7 -5 12 -18 12 -13
0 -20 -5 -17 -12z"/>
<path d="M1317 581 c-26 -10 -21 -26 8 -26 31 0 33 -19 3 -23 -32 -5 -50 -30
-37 -53 7 -14 21 -19 54 -19 l45 0 0 49 c0 59 -29 87 -73 72z m33 -86 c-12
-15 -30 -12 -30 6 0 5 10 9 21 9 18 0 19 -2 9 -15z"/>
<path d="M1052 568 c-15 -15 -16 -63 -2 -89 12 -22 59 -26 78 -7 16 16 16 80
0 96 -7 7 -24 12 -38 12 -14 0 -31 -5 -38 -12z m56 -47 c3 -27 0 -32 -15 -29
-19 3 -28 30 -19 54 10 26 31 10 34 -25z"/>
<path d="M1670 521 c0 -48 3 -61 15 -61 11 0 15 12 15 44 0 28 5 46 14 49 21
8 26 -2 26 -50 0 -32 4 -43 15 -43 13 0 15 11 13 58 l-3 57 -47 3 -48 3 0 -60z"/>
<path d="M1800 554 c-19 -49 9 -97 52 -86 14 3 17 0 12 -13 -5 -11 -14 -15
-31 -12 -27 5 -42 -11 -22 -24 23 -14 48 -10 69 11 16 16 20 33 20 85 l0 65
-45 0 c-40 0 -47 -3 -55 -26z m64 -42 c-20 -31 -44 -3 -29 35 5 15 7 15 23 0
13 -14 14 -21 6 -35z"/>
<path d="M1930 520 c0 -47 3 -60 15 -60 12 0 15 13 15 60 0 47 -3 60 -15 60
-12 0 -15 -13 -15 -60z"/>
<path d="M1980 520 c0 -53 2 -60 20 -60 17 0 20 7 20 43 0 24 3 47 7 50 14 14
33 -17 33 -54 0 -28 4 -39 15 -39 11 0 15 12 15 48 0 59 -12 72 -67 72 l-43 0
0 -60z"/>
<path d="M2122 568 c-17 -17 -15 -83 2 -97 19 -16 78 -10 84 7 3 9 -4 13 -19
12 -37 -3 -49 -1 -49 10 0 6 18 10 40 10 44 0 50 11 24 48 -17 24 -62 30 -82
10z m56 -26 c2 -7 -6 -12 -17 -12 -21 0 -27 11 -14 24 9 9 26 2 31 -12z"/>
<path d="M2240 561 c-27 -51 4 -105 56 -99 15 2 30 9 32 17 3 10 -1 12 -16 9
-12 -3 -29 0 -39 8 -16 12 -14 13 25 14 45 0 52 12 32 51 -7 13 -21 19 -45 19
-24 0 -38 -6 -45 -19z m68 -18 c2 -8 -5 -13 -17 -13 -12 0 -21 6 -21 16 0 18
31 15 38 -3z"/>
<path d="M2360 520 c0 -47 3 -60 15 -60 11 0 15 11 15 39 0 39 11 55 39 56 8
0 16 6 18 13 3 8 -9 12 -41 12 l-46 0 0 -60z"/>
<path d="M2460 520 c0 -47 3 -60 15 -60 12 0 15 13 15 60 0 47 -3 60 -15 60
-12 0 -15 -13 -15 -60z"/>
<path d="M2520 520 c0 -47 3 -60 15 -60 11 0 15 11 15 39 0 37 19 68 33 54 4
-3 7 -26 7 -50 0 -36 3 -43 20 -43 17 0 20 7 20 41 0 63 -13 79 -65 79 l-45 0
0 -60z"/>
<path d="M2657 573 c-4 -3 -7 -26 -7 -49 0 -47 23 -70 56 -57 12 4 15 2 12 -8
-3 -8 -18 -14 -33 -14 -37 -1 -44 -22 -11 -31 17 -4 35 0 51 10 23 15 25 23
25 86 l0 70 -43 0 c-24 0 -47 -3 -50 -7z m57 -29 c9 -23 -3 -56 -17 -51 -22 7
-21 67 2 67 5 0 12 -7 15 -16z"/>
<path d="M2780 459 c0 -38 24 -35 28 4 2 19 -1 27 -12 27 -11 0 -16 -10 -16
-31z"/>
<path d="M820 385 c0 -9 9 -15 25 -15 24 0 25 -2 25 -70 0 -56 3 -70 15 -70
12 0 15 14 15 70 0 68 1 70 25 70 16 0 25 6 25 15 0 12 -14 15 -65 15 -51 0
-65 -3 -65 -15z"/>
<path d="M1180 315 c0 -67 3 -85 14 -85 11 0 16 14 18 48 2 34 7 47 18 47 11
0 16 -13 18 -47 2 -34 7 -48 18 -48 10 0 14 14 14 55 0 43 -4 56 -19 65 -11 5
-27 7 -35 4 -12 -5 -16 0 -16 20 0 16 -6 26 -15 26 -12 0 -15 -16 -15 -85z"/>
<path d="M1440 390 c0 -5 7 -10 15 -10 8 0 15 5 15 10 0 6 -7 10 -15 10 -8 0
-15 -4 -15 -10z"/>
<path d="M960 340 c-25 -25 -26 -72 -1 -94 23 -21 76 -18 76 4 0 10 -8 14 -27
12 -14 -2 -29 2 -33 7 -4 7 8 11 34 11 34 0 41 3 41 20 0 23 -33 60 -55 60 -8
0 -24 -9 -35 -20z m55 -20 c4 -6 -5 -10 -20 -10 -15 0 -24 4 -20 10 3 6 12 10
20 10 8 0 17 -4 20 -10z"/>
<path d="M1098 353 c-30 -8 -40 -81 -15 -111 12 -15 72 -12 72 3 0 6 -13 11
-28 13 -25 3 -28 7 -25 35 2 25 8 32 25 32 28 0 41 14 23 25 -16 10 -24 11
-52 3z"/>
<path d="M1310 294 c0 -49 3 -64 14 -64 11 0 16 14 18 48 2 34 7 47 18 47 11
0 16 -13 18 -47 2 -34 7 -48 18 -48 10 0 14 14 14 54 0 61 -6 68 -61 71 l-39
2 0 -63z"/>
<path d="M1440 296 c0 -53 3 -66 15 -66 13 0 15 11 13 62 -2 38 -8 63 -15 66
-10 3 -13 -14 -13 -62z"/>
<path d="M1512 344 c-26 -18 -30 -74 -6 -98 41 -41 102 3 89 64 -6 27 -30 50
-52 50 -5 0 -19 -7 -31 -16z m46 -53 c3 -27 0 -32 -15 -29 -19 3 -28 30 -19
54 10 26 31 10 34 -25z"/>
<path d="M1620 294 c0 -49 3 -64 14 -64 11 0 16 14 18 48 2 34 7 47 18 47 11
0 16 -13 18 -47 2 -34 7 -48 18 -48 10 0 14 14 14 54 0 61 -6 68 -61 71 l-39
2 0 -63z"/>
</g>
</svg>
